HIERARCHY
ROOT Hips
{
 OFFSET 0.000000 0.000000 0.000000
 CHANNELS 6 Xposition Yposition Zposition Yrotation Xrotation Zrotation
 JOINT Chest
 {
  OFFSET 0.000000 9.585900 0.002600
  CHANNELS 3 Yrotation Xrotation Zrotation
  JOINT Chest2
  {
   OFFSET 0.000000 9.601200 -0.005300
   CHANNELS 3 Yrotation Xrotation Zrotation
   JOINT Chest3
   {
    OFFSET 0.000000 9.561800 0.000000
    CHANNELS 3 Yrotation Xrotation Zrotation
    JOINT Chest4
    {
     OFFSET 0.000000 9.552100 0.000000
     CHANNELS 3 Yrotation Xrotation Zrotation
     JOINT Neck
     {
      OFFSET 0.000000 14.453000 0.000000
      CHANNELS 3 Yrotation Xrotation Zrotation
      JOINT Head
      {
       OFFSET 0.000000 8.936500 -0.011300
       CHANNELS 3 Yrotation Xrotation Zrotation
       End Site
       {
        OFFSET 0.000000 17.073600 -0.006000
       }
      }
     }
     JOINT RightCollar
     {
      OFFSET -2.921100 9.558500 0.000000
      CHANNELS 3 Yrotation Xrotation Zrotation
      JOINT RightShoulder
      {
       OFFSET -13.519700 0.000000 0.000000
       CHANNELS 3 Yrotation Xrotation Zrotation
       JOINT RightElbow
       {
        OFFSET 0.000000 -29.696600 0.000000
        CHANNELS 3 Yrotation Xrotation Zrotation
        JOINT RightWrist
        {
         OFFSET 0.000000 -24.004700 0.000000
         CHANNELS 3 Yrotation Xrotation Zrotation
         End Site
         {
          OFFSET 0.000000 -17.728500 0.000000
         }
        }
       }
      }
     }
     JOINT LeftCollar
     {
      OFFSET 2.921100 9.558500 0.000000
      CHANNELS 3 Yrotation Xrotation Zrotation
      JOINT LeftShoulder
      {
       OFFSET 13.519700 0.000000 0.000000
       CHANNELS 3 Yrotation Xrotation Zrotation
       JOINT LeftElbow
       {
        OFFSET 0.000000 -29.696600 0.000000
        CHANNELS 3 Yrotation Xrotation Zrotation
        JOINT LeftWrist
        {
         OFFSET 0.000000 -24.004700 0.000000
         CHANNELS 3 Yrotation Xrotation Zrotation
         End Site
         {
          OFFSET 0.000000 -17.728500 0.000000
         }
        }
       }
      }
     }
    }
   }
  }
 }
 JOINT RightHip
 {
  OFFSET -7.771700 -0.012900 -0.001300
  CHANNELS 3 Yrotation Xrotation Zrotation
  JOINT RightKnee
  {
   OFFSET 0.000000 -40.869800 0.001200
   CHANNELS 3 Yrotation Xrotation Zrotation
   JOINT RightAnkle
   {
    OFFSET 0.000000 -39.717900 0.002100
    CHANNELS 3 Yrotation Xrotation Zrotation
    JOINT RightToe
    {
     OFFSET 0.000000 -4.965400 11.033500
     CHANNELS 3 Yrotation Xrotation Zrotation
     End Site
     {
      OFFSET 0.000000 -1.423100 5.872300
     }
    }
   }
  }
 }
 JOINT LeftHip
 {
  OFFSET 7.771700 -0.012900 -0.001300
  CHANNELS 3 Yrotation Xrotation Zrotation
  JOINT LeftKnee
  {
   OFFSET 0.000000 -40.869800 0.001200
   CHANNELS 3 Yrotation Xrotation Zrotation
   JOINT LeftAnkle
   {
    OFFSET 0.000000 -39.717900 0.002100
    CHANNELS 3 Yrotation Xrotation Zrotation
    JOINT LeftToe
    {
     OFFSET 0.000000 -4.965400 11.033500
     CHANNELS 3 Yrotation Xrotation Zrotation
     End Site
     {
      OFFSET 0.000000 -1.423100 5.872300
     }
    }
   }
  }
 }
}
MOTION
Frames: 11
Frame Time: 0.008333
-204.444093 49.110472 8.812218 173.332323 -31.910328 -4.646172 2.006107 17.540370 2.164666 0.200334 1.935261 0.186343 0.331287 3.208390 0.268844 1.781860 15.428322 1.450722 3.402246 20.455160 -3.272593 7.140693 2.469827 -7.040374 -2.483220 -0.925103 -0.826554 -4.022100 -12.567402 -12.788323 -60.649672 -56.236182 105.117101 1.471783 -9.983196 -20.493711 -1.277147 -0.662293 1.561102 5.490705 -6.187851 13.589767 77.782466 -57.327214 -110.232572 10.965331 -6.882339 20.370046 -9.427337 -51.652439 0.036607 -138.262384 80.663762 -125.043288 -30.080666 -3.055067 -3.749937 -0.136168 -14.973529 -0.864415 -20.437046 -53.387440 24.724137 -75.660466 68.607622 -79.420951 30.220892 8.744432 11.039547 0.185640 -0.626984 0.029334
-204.452161 49.129775 8.805301 173.362403 -31.899534 -4.682303 1.988505 17.535413 2.214180 0.197356 1.931917 0.185222 0.328290 3.211452 0.272774 1.764104 15.439134 1.465893 3.424337 20.461040 -3.259928 7.139728 2.475280 -7.063080 -2.477808 -0.913496 -0.839374 -4.024365 -12.600007 -12.823878 -60.653060 -56.233419 105.125787 1.463061 -9.987019 -20.491203 -1.279690 -0.659921 1.577391 5.491297 -6.198637 13.533080 77.695384 -57.324616 -110.190826 10.962077 -6.869587 20.365894 -9.388883 -51.663332 0.001052 -138.341188 80.656902 -125.089052 -30.088867 -3.034708 -3.719283 -0.142228 -14.984451 -0.869219 -20.516013 -53.388465 24.757034 -75.703293 68.618616 -79.445888 30.183992 8.759024 10.992172 0.224123 -0.650209 0.051681
-204.459301 49.146813 8.796586 173.403669 -31.897995 -4.724599 1.960749 17.534518 2.258700 0.195685 1.932400 0.182169 0.326600 3.213691 0.268181 1.754656 15.447105 1.499310 3.442019 20.470348 -3.244197 7.178151 2.503839 -7.018483 -2.477193 -0.900525 -0.851233 -4.089204 -12.609274 -12.840190 -60.645344 -56.170248 105.143084 1.473038 -9.983865 -20.466849 -1.275385 -0.667123 1.536208 5.471815 -6.202667 13.536029 77.618258 -57.330397 -110.166251 10.957336 -6.851193 20.360381 -9.353203 -51.658897 -0.020206 -138.442208 80.672300 -125.175561 -30.115881 -3.012084 -3.672440 -0.135473 -14.982763 -0.879382 -20.598850 -53.380370 24.786216 -75.739918 68.631790 -79.466590 30.146485 8.771702 10.954543 0.254921 -0.678850 0.073765
-204.466962 49.161086 8.786883 173.446479 -31.899468 -4.757995 1.931947 17.525859 2.318709 0.189906 1.944583 0.141486 0.325724 3.214809 0.276982 1.747378 15.454431 1.533960 3.455796 20.477673 -3.227964 7.211860 2.535070 -6.963831 -2.477287 -0.888618 -0.863482 -4.139458 -12.609020 -12.853460 -60.635385 -56.136037 105.159189 1.447065 -9.998262 -20.468489 -1.275682 -0.674719 1.519263 5.366688 -6.236145 13.577212 77.606281 -57.266097 -110.079777 10.954998 -6.840420 20.357560 -9.300201 -51.648947 -0.055587 -138.579113 80.700113 -125.290533 -30.141757 -3.015040 -3.682860 -0.144226 -14.957401 -0.836327 -20.681481 -53.372039 24.799449 -75.755833 68.658358 -79.478808 30.145496 8.788926 10.933709 0.256413 -0.704511 0.079581
-204.469821 49.172775 8.777587 173.468342 -31.901971 -4.802193 1.928635 17.520832 2.377964 0.186313 1.946171 0.143442 0.325678 3.210448 0.309612 1.722067 15.462979 1.554747 3.445395 20.491422 -3.279141 7.243712 2.560886 -6.888260 -2.475163 -0.867102 -0.907676 -4.167176 -12.614977 -12.870686 -60.626671 -56.085323 105.151783 1.432735 -10.009660 -20.472529 -1.271493 -0.675579 1.476313 5.308402 -6.253471 13.584095 77.536221 -57.263947 -110.059823 10.950334 -6.814895 20.346957 -9.167094 -51.627034 -0.104037 -138.513938 80.695682 -125.128884 -30.209928 -3.069063 -3.690243 -0.061728 -14.892832 -0.813362 -20.764854 -53.361849 24.828442 -75.792070 68.697703 -79.507794 30.192393 8.786829 10.941230 0.209328 -0.727348 0.066738
-204.474230 49.180864 8.768932 173.474963 -31.896730 -4.822229 1.932693 17.509095 2.420899 0.185194 1.944345 0.144405 0.320932 3.211581 0.313625 1.705231 15.460926 1.578559 3.463932 20.512092 -3.243529 7.253968 2.591170 -6.853591 -2.475572 -0.838235 -0.926087 -4.201957 -12.609334 -12.870285 -60.612074 -56.046836 105.146963 1.419208 -10.019253 -20.486381 -1.266875 -0.673928 1.481202 5.251333 -6.265725 13.576052 77.486005 -57.267823 -110.062509 10.946211 -6.793821 20.328756 -9.114328 -51.627476 -0.115558 -138.560497 80.699846 -125.143433 -30.193231 -3.108555 -3.784995 -0.082115 -14.842913 -0.709656 -20.793302 -53.365376 24.846862 -75.840958 68.708129 -79.543689 30.182934 8.772377 10.923221 0.215721 -0.727011 0.074677
-204.480440 49.187339 8.758069 173.489762 -31.902337 -4.827349 1.923325 17.511948 2.438065 0.184576 1.941861 0.151928 0.317680 3.211614 0.317973 1.690540 15.463250 1.568731 3.489014 20.524203 -3.167774 7.263720 2.622635 -6.816336 -2.482774 -0.814408 -0.911376 -4.239203 -12.593082 -12.855460 -60.591718 -56.021275 105.139491 1.408852 -10.025471 -20.508029 -1.262535 -0.670331 1.466375 5.185340 -6.289384 13.624272 77.463923 -57.266313 -110.070410 10.938324 -6.780092 20.294986 -9.056520 -51.627109 -0.147313 -138.719906 80.712354 -125.297055 -30.189092 -3.131585 -3.835014 -0.106228 -14.803732 -0.634382 -20.797804 -53.362652 24.834985 -75.889640 68.711564 -79.585817 30.164393 8.749524 10.904295 0.231025 -0.717508 0.084709
-204.491836 49.193525 8.742472 173.561292 -31.930337 -4.822007 1.853021 17.545163 2.400644 0.185851 1.937508 0.172592 0.315800 3.212855 0.322015 1.673864 15.463337 1.557672 3.505867 20.535756 -3.109885 7.277223 2.650811 -6.759285 -2.491109 -0.790907 -0.897326 -4.237683 -12.599236 -12.869545 -60.573370 -55.963297 105.097104 1.400353 -10.029510 -20.529724 -1.256943 -0.666233 1.469568 5.122284 -6.309410 13.657023 77.457599 -57.271636 -110.093949 10.927409 -6.769771 20.242153 -9.025908 -51.610020 -0.227443 -139.061251 80.737002 -125.680074 -30.200959 -3.136377 -3.786990 -0.137060 -14.782236 -0.626303 -20.773402 -53.354151 24.731431 -75.938144 68.716746 -79.625172 30.148484 8.726582 10.891054 0.246896 -0.704305 0.092467
-204.498997 49.195544 8.731853 173.595216 -31.931696 -4.819953 1.830168 17.548103 2.412682 0.182713 1.936314 0.174323 0.303243 3.211833 0.319633 1.641885 15.452812 1.611286 3.508612 20.560499 -3.144157 7.291897 2.673901 -6.682998 -2.479572 -0.760387 -0.952180 -4.234548 -12.605565 -12.882107 -60.555337 -55.910506 105.051999 1.393080 -10.031340 -20.546276 -1.235449 -0.653878 1.409726 5.067934 -6.325500 13.685716 77.472909 -57.284104 -110.137583 10.909739 -6.762530 20.177848 -9.004797 -51.617964 -0.268471 -139.186587 80.729573 -125.815294 -30.197159 -3.163402 -3.794646 -0.155035 -14.751357 -0.592143 -20.733601 -53.367616 24.668190 -75.972157 68.711825 -79.638771 30.148486 8.701575 10.895710 0.243794 -0.689127 0.096016
-204.511463 49.192736 8.725428 173.577961 -31.904158 -4.757682 1.828505 17.521977 2.380170 0.177025 1.932058 0.193518 0.296755 3.209774 0.301792 1.622963 15.450405 1.618182 3.515066 20.573326 -3.163775 7.310153 2.689467 -6.571927 -2.468481 -0.743558 -0.972482 -4.306683 -12.548857 -12.797886 -60.528476 -55.968432 105.066548 1.375034 -10.030967 -20.570538 -1.227876 -0.648739 1.402921 5.027574 -6.338052 13.713572 77.502674 -57.303258 -110.195430 10.885523 -6.757830 20.108787 -8.856164 -51.685695 -0.377432 -139.265110 80.688369 -125.863724 -30.229922 -3.208907 -3.919401 -0.127096 -14.702097 -0.452965 -20.648973 -53.418217 24.596553 -75.997900 68.712250 -79.668879 30.136321 8.612392 10.911834 0.234334 -0.615721 0.094669
-204.519735 49.191299 8.716386 173.592621 -31.901763 -4.732467 1.803262 17.518372 2.367529 0.177316 1.934470 0.176793 0.288876 3.202288 0.317251 1.616142 15.454336 1.610613 3.525986 20.582114 -3.107738 7.314516 2.704628 -6.518508 -2.466431 -0.730974 -0.972399 -4.339731 -12.522707 -12.759895 -60.514800 -56.011859 105.081083 1.360052 -10.030267 -20.587986 -1.250493 -0.656350 1.449850 5.022126 -6.337234 13.709841 77.541732 -57.329593 -110.262646 10.860654 -6.750870 20.035862 -8.776531 -51.720266 -0.439719 -139.387923 80.646179 -125.995617 -30.220238 -3.234983 -3.945126 -0.139137 -14.666741 -0.387883 -20.607631 -53.434808 24.543762 -76.013212 68.707502 -79.681932 30.125203 8.598312 10.909999 0.244212 -0.605765 0.101753
